<svg version="1" xmlns="http://www.w3.org/2000/svg" width="682.667" height="682.667" viewBox="0 0 512.000000 512.000000"><path d="M0 256v256h512V0H0v256zM181.9 98.2l19.1 18.3V171h-59v-26H79v222h63v-28h59v56.8l-19.1 18.1-19 18.1H57.8l-18.9-18.2L20 395.5V117.3l18.8-18.6L57.5 80H162.8l19.1 18.2zm95.5 39.5c14.8 110.6 16.3 120.8 17 118.3.5-2.3 31.6-174.6 31.6-175.6 0-.2 11-.4 24.4-.4h24.4l.5 2.2c.3 1.3 7.4 40.8 15.8 87.8 8.3 47 15.5 85.8 15.8 86.2.5.6 24.3-172.2 24.1-175.5 0-.4 13.8-.7 30.6-.7h30.6l-.5 2.2c-.3 1.3-12.4 80.5-26.9 176L438.5 432h-30.2c-16.7 0-30.3-.4-30.3-.8 0-1-26.9-148.3-27.3-149.6-.1-.4-6.3 32-13.6 72-7.3 40.1-13.6 74.1-13.8 75.6l-.5 2.8h-60.3l-26.4-174.3c-14.4-95.8-26.5-175-26.8-176-.4-1.6 1.5-1.7 29.9-1.7h30.4l7.8 57.7z"/></svg>